<svg xmlns="http://www.w3.org/2000/svg" version="1.0" width="300.000000pt" height="128.000000pt" viewBox="0 0 300.000000 128.000000" preserveAspectRatio="xMidYMid meet">
<metadata>
Created by potrace 1.10, written by Peter Selinger 2001-2011
</metadata>
<g transform="translate(0.000000,128.000000) scale(0.100000,-0.100000)" fill="#000000" stroke="none">
<path d="M850 1021 c-83 -34 -102 -38 -152 -34 -54 5 -59 4 -89 -26 -24 -24 -30 -37 -24 -54 26 -83 35 -129 35 -182 l0 -60 -37 -2 c-54 -3 -83 -12 -83 -26 0 -6 -16 -37 -35 -67 -57 -89 -46 -174 36 -268 63 -73 236 -69 296 6 82 102 88 186 22 276 -16 22 -29 46 -29 53 0 13 -16 18 -92 28 l-48 6 0 40 c0 21 5 39 10 39 6 0 10 -9 10 -20 0 -24 25 -27 34 -4 3 9 6 28 6 43 0 41 27 124 48 147 10 11 63 35 116 53 99 34 118 49 96 76 -16 19 -9 20 -120 -24z m108 7 c-4 -11 -170 -78 -195 -78 -33 0 -5 18 80 51 101 40 121 45 115 27z m-254 -77 c11 -21 12 -31 3 -40 -16 -16 -24 -14 -30 12 -2 12 -8 30 -12 40 -13 30 23 20 39 -12z m-29 -70 c-11 -10 -40 16 -50 43 -7 21 -6 29 5 36 10 6 18 -2 32 -32 10 -23 16 -44 13 -47z m4 -73 c1 -10 -6 -18 -14 -18 -16 0 -22 50 -8 64 8 8 21 -19 22 -46z m-49 -168 c0 -5 -23 -10 -51 -10 -31 0 -48 4 -44 10 3 6 26 10 51 10 24 0 44 -4 44 -10z m120 0 c11 -7 -2 -10 -42 -10 -32 0 -58 4 -58 10 0 13 80 13 100 0z m38 -40 c37 -44 35 -46 -58 -36 -54 6 -121 6 -172 0 l-84 -9 20 30 20 30 131 0 c103 0 133 -3 143 -15z m-4 -56 c31 -5 43 -10 34 -15 -16 -10 -303 -12 -338 -2 -24 7 -23 8 10 14 48 9 237 10 294 3z m-274 -54 c-10 -7 32 -10 128 -10 88 0 142 4 142 10 0 15 19 12 36 -5 20 -20 9 -79 -25 -127 -45 -62 -79 -75 -193 -69 -53 2 -137 104 -138 167 0 26 18 44 45 44 16 0 17 -2 5 -10z" />
<path d="M1055 890 c-3 -5 1 -10 9 -10 14 0 16 -23 16 -171 0 -152 -2 -173 -17 -185 -16 -12 -10 -13 45 -14 35 0 62 4 62 10 0 6 -4 10 -10 10 -6 0 -10 35 -10 85 l0 85 78 0 77 0 0 -82 c0 -56 -4 -83 -12 -85 -33 -11 -7 -23 50 -23 51 1 59 3 46 13 -24 18 -28 344 -5 353 33 13 14 24 -38 24 -54 0 -80 -12 -51 -23 11 -5 13 -22 10 -84 l-4 -78 -76 0 -75 0 0 83 c0 48 4 82 10 82 6 0 10 5 10 10 0 6 -24 10 -54 10 -30 0 -58 -4 -61 -10z" transform="translate(2,0)" />
<path d="M1784 759 c-46 -23 -44 -23 -44 -4 0 9 -9 15 -22 15 -30 0 -52 -15 -44 -29 11 -17 -27 -91 -73 -143 -32 -36 -50 -48 -71 -48 -36 0 -40 12 -40 126 l0 94 -42 0 c-33 0 -39 -3 -30 -12 8 -8 12 -46 12 -106 0 -103 8 -128 47 -143 42 -16 75 5 147 91 65 77 146 140 180 140 9 0 21 -12 26 -26 14 -36 13 -177 -2 -192 -9 -9 -2 -12 33 -12 l45 0 -3 73 c-5 113 -13 154 -31 169 -30 26 -49 27 -88 7z" transform="translate(4,0)" />
<path d="M1570 760 c0 -5 3 -10 8 -10 4 0 6 -34 4 -75 -2 -41 0 -75 4 -75 22 0 54 71 54 120 l0 50 -35 0 c-19 0 -35 -4 -35 -10z" transform="translate(6,0)" />
<path d="M1948 763 c-13 -3 -16 -9 -9 -21 12 -22 11 -212 0 -212 -5 0 -9 -4 -9 -10 0 -5 20 -10 43 -10 l44 0 -8 48 c-15 91 -11 131 16 157 31 32 63 33 70 2 9 -36 11 -149 2 -179 -7 -28 -7 -28 40 -28 37 0 44 3 35 12 -8 8 -12 47 -12 110 0 110 -14 138 -69 138 -15 0 -40 -9 -54 -20 -14 -11 -27 -20 -30 -20 -3 0 -3 9 0 20 4 16 1 20 -18 19 -13 -1 -32 -3 -41 -6z" transform="translate(8,0)" />
<path d="M2180 764 c0 -4 6 -12 14 -18 18 -14 110 -215 109 -237 -1 -9 -8 -33 -17 -53 -13 -32 -18 -36 -35 -27 -14 8 -22 7 -30 -3 -17 -20 -2 -46 25 -46 33 0 50 30 119 215 31 85 61 155 66 155 5 0 9 5 9 10 0 6 -13 10 -29 10 -22 0 -30 -5 -29 -17 1 -10 -9 -51 -21 -92 l-23 -75 -34 78 c-19 42 -34 83 -34 91 0 11 -12 15 -45 15 -25 0 -45 -3 -45 -6z" />
<path d="M1703 668 c-16 -17 -22 -40 -25 -90 l-4 -68 39 0 c32 0 38 3 33 16 -3 9 -6 49 -6 90 0 41 -4 74 -8 74 -5 0 -18 -10 -29 -22z" />
<path d="M1613 570 c-38 -47 -39 -60 -7 -60 16 0 34 4 40 8 11 7 7 82 -5 81 -3 0 -16 -13 -28 -29z" />
</g>
</svg>
